<svg xmlns="http://www.w3.org/2000/svg" xmlns:xlink="http://www.w3.org/1999/xlink" width="300" zoomAndPan="magnify" viewBox="0 0 224.87999 225" height="300" preserveAspectRatio="xMidYMid meet" version="1.0"><defs><g/><clipPath id="id1"><path d="M 0 0.0585938 L 224.761719 0.0585938 L 224.761719 224.9375 L 0 224.9375 Z M 0 0.0585938 " clip-rule="nonzero"/></clipPath></defs><g clip-path="url(#id1)"><path fill="#ffffff" d="M 0 0.0585938 L 224.878906 0.0585938 L 224.878906 232.4375 L 0 232.4375 Z M 0 0.0585938 " fill-opacity="1" fill-rule="nonzero"/><path fill="#ffffff" d="M 0 0.0585938 L 224.878906 0.0585938 L 224.878906 224.941406 L 0 224.941406 Z M 0 0.0585938 " fill-opacity="1" fill-rule="nonzero"/><path fill="#ffffff" d="M 0 0.0585938 L 224.878906 0.0585938 L 224.878906 224.941406 L 0 224.941406 Z M 0 0.0585938 " fill-opacity="1" fill-rule="nonzero"/><path fill="#ffffff" d="M 0 0.0585938 L 224.878906 0.0585938 L 224.878906 224.941406 L 0 224.941406 Z M 0 0.0585938 " fill-opacity="1" fill-rule="nonzero"/></g><g fill="#000000" fill-opacity="1"><g transform="translate(61.232945, 120.370805)"><g><path d="M 8.53125 0 L 5.328125 -11.296875 L 5.234375 -11.296875 C 5.378906 -9.378906 5.453125 -7.882812 5.453125 -6.8125 L 5.453125 0 L 1.703125 0 L 1.703125 -15.6875 L 7.34375 -15.6875 L 10.609375 -4.546875 L 10.703125 -4.546875 L 13.90625 -15.6875 L 19.5625 -15.6875 L 19.5625 0 L 15.671875 0 L 15.671875 -6.875 C 15.671875 -7.238281 15.675781 -7.640625 15.6875 -8.078125 C 15.695312 -8.515625 15.742188 -9.582031 15.828125 -11.28125 L 15.734375 -11.28125 L 12.5625 0 Z M 8.53125 0 "/></g></g></g><g fill="#000000" fill-opacity="1"><g transform="translate(82.487357, 120.370805)"><g><path d="M 16.375 -7.875 C 16.375 -5.226562 15.726562 -3.21875 14.4375 -1.84375 C 13.144531 -0.46875 11.25 0.21875 8.75 0.21875 C 6.289062 0.21875 4.398438 -0.46875 3.078125 -1.84375 C 1.765625 -3.226562 1.109375 -5.242188 1.109375 -7.890625 C 1.109375 -10.503906 1.757812 -12.5 3.0625 -13.875 C 4.375 -15.25 6.273438 -15.9375 8.765625 -15.9375 C 11.265625 -15.9375 13.15625 -15.253906 14.4375 -13.890625 C 15.726562 -12.523438 16.375 -10.519531 16.375 -7.875 Z M 5.578125 -7.875 C 5.578125 -4.832031 6.632812 -3.3125 8.75 -3.3125 C 9.820312 -3.3125 10.617188 -3.679688 11.140625 -4.421875 C 11.660156 -5.160156 11.921875 -6.3125 11.921875 -7.875 C 11.921875 -9.4375 11.65625 -10.59375 11.125 -11.34375 C 10.601562 -12.09375 9.816406 -12.46875 8.765625 -12.46875 C 6.640625 -12.46875 5.578125 -10.9375 5.578125 -7.875 Z M 5.578125 -7.875 "/></g></g></g><g fill="#000000" fill-opacity="1"><g transform="translate(100.006144, 120.370805)"><g><path d="M 11.953125 -4.765625 C 11.953125 -3.796875 11.707031 -2.929688 11.21875 -2.171875 C 10.726562 -1.421875 10.015625 -0.832031 9.078125 -0.40625 C 8.148438 0.0078125 7.0625 0.21875 5.8125 0.21875 C 4.757812 0.21875 3.878906 0.144531 3.171875 0 C 2.460938 -0.144531 1.726562 -0.398438 0.96875 -0.765625 L 0.96875 -4.546875 C 1.769531 -4.128906 2.609375 -3.804688 3.484375 -3.578125 C 4.359375 -3.347656 5.160156 -3.234375 5.890625 -3.234375 C 6.523438 -3.234375 6.988281 -3.34375 7.28125 -3.5625 C 7.570312 -3.78125 7.71875 -4.0625 7.71875 -4.40625 C 7.71875 -4.613281 7.65625 -4.796875 7.53125 -4.953125 C 7.414062 -5.117188 7.226562 -5.285156 6.96875 -5.453125 C 6.707031 -5.617188 6.015625 -5.957031 4.890625 -6.46875 C 3.859375 -6.925781 3.085938 -7.375 2.578125 -7.8125 C 2.066406 -8.25 1.6875 -8.75 1.4375 -9.3125 C 1.195312 -9.882812 1.078125 -10.554688 1.078125 -11.328125 C 1.078125 -12.773438 1.601562 -13.898438 2.65625 -14.703125 C 3.707031 -15.515625 5.148438 -15.921875 6.984375 -15.921875 C 8.609375 -15.921875 10.265625 -15.546875 11.953125 -14.796875 L 10.65625 -11.515625 C 9.1875 -12.191406 7.921875 -12.53125 6.859375 -12.53125 C 6.304688 -12.53125 5.90625 -12.429688 5.65625 -12.234375 C 5.40625 -12.046875 5.28125 -11.804688 5.28125 -11.515625 C 5.28125 -11.210938 5.4375 -10.9375 5.75 -10.6875 C 6.070312 -10.445312 6.9375 -10.003906 8.34375 -9.359375 C 9.695312 -8.753906 10.632812 -8.101562 11.15625 -7.40625 C 11.6875 -6.707031 11.953125 -5.828125 11.953125 -4.765625 Z M 11.953125 -4.765625 "/></g></g></g><g fill="#000000" fill-opacity="1"><g transform="translate(112.694384, 120.370805)"><g><path d="M 15.140625 0 L 10.890625 0 L 10.890625 -6.390625 L 5.953125 -6.390625 L 5.953125 0 L 1.703125 0 L 1.703125 -15.6875 L 5.953125 -15.6875 L 5.953125 -9.875 L 10.890625 -9.875 L 10.890625 -15.6875 L 15.140625 -15.6875 Z M 15.140625 0 "/></g></g></g><g fill="#000000" fill-opacity="1"><g transform="translate(129.536901, 120.370805)"><g><path d="M 1.703125 0 L 1.703125 -15.6875 L 5.953125 -15.6875 L 5.953125 0 Z M 1.703125 0 "/></g></g></g><g fill="#000000" fill-opacity="1"><g transform="translate(137.190641, 120.370805)"><g><path d="M 5.875 0 L 1.703125 0 L 1.703125 -15.6875 L 10.96875 -15.6875 L 10.96875 -12.296875 L 5.875 -12.296875 L 5.875 -9.296875 L 10.578125 -9.296875 L 10.578125 -5.890625 L 5.875 -5.890625 Z M 5.875 0 "/></g></g></g><g fill="#000000" fill-opacity="1"><g transform="translate(149.041586, 120.370805)"><g><path d="M 7.296875 -9.875 L 10 -15.6875 L 14.59375 -15.6875 L 9.4375 -6.125 L 9.4375 0 L 5.15625 0 L 5.15625 -6 L 0 -15.6875 L 4.609375 -15.6875 Z M 7.296875 -9.875 "/></g></g></g></svg>