<svg width="0" height="0" class="hidden">
  <symbol xmlns="http://www.w3.org/2000/svg" preserveAspectRatio="xMinYMin meet" viewBox="-52.5 0 361 361" id="1">
    <path d="M255.555 70.766l-23.241 260.36-104.47 28.962-104.182-28.922L.445 70.766h255.11z" fill="#E44D26"></path>
    <path d="M128 337.95l84.417-23.403 19.86-222.49H128V337.95z" fill="#F16529"></path>
    <path d="M82.82 155.932H128v-31.937H47.917l.764 8.568 7.85 88.01H128v-31.937H85.739l-2.919-32.704zM90.018 236.542h-32.06l4.474 50.146 65.421 18.16.147-.04V271.58l-.14.037-35.568-9.604-2.274-25.471z" fill="#EBEBEB"></path>
    <path d="M24.18 0h16.23v16.035h14.847V0h16.231v48.558h-16.23v-16.26H40.411v16.26h-16.23V0zM92.83 16.103H78.544V0h44.814v16.103h-14.295v32.455h-16.23V16.103h-.001zM130.47 0h16.923l10.41 17.062L168.203 0h16.93v48.558h-16.164V24.49l-11.166 17.265h-.28L146.35 24.49v24.068h-15.88V0zM193.21 0h16.235v32.508h22.824v16.05h-39.06V0z"></path>
    <path d="M127.89 220.573h39.327l-3.708 41.42-35.62 9.614v33.226l65.473-18.145.48-5.396 7.506-84.08.779-8.576H127.89v31.937zM127.89 155.854v.078h77.143l.64-7.178 1.456-16.191.763-8.568H127.89v31.86z" fill="#FFF"></path>
  </symbol>
  <symbol fill="none" xmlns="http://www.w3.org/2000/svg" viewBox="0 0 124 141.53" id="2">
    <path d="M10.383 126.892L0 0l124 .255-10.979 126.637-50.553 14.638z" fill="#1b73ba"></path>
    <path d="M62.468 129.275V12.085l51.064.17-9.106 104.85z" fill="#1c88c7"></path>
    <path d="M100.851 27.064H22.298l2.128 15.318h37.276l-36.68 15.745 2.127 14.808h54.043l-1.958 20.68-18.298 3.575-16.595-4.255-1.277-11.745H27.83l2.042 24.426 32.681 9.106 31.32-9.957 4-47.745H64.765l36.085-14.978z" fill="#fff"></path>
  </symbol>
  <symbol xmlns="http://www.w3.org/2000/svg" viewBox="0 0 24 24" id="3">
    <g fill="none" fill-rule="evenodd">
      <rect width="24" height="24" fill="#F1DC50"></rect>
      <path stroke="#333" stroke-width="2" d="M12,11 C12,15.749205 12,18.4158717 12,19 C12,19.8761925 11.4771235,21 10,21 C7.61461794,21 7.5,19 7.5,19 M20.7899648,13.51604 C20.1898831,12.5053467 19.3944074,12 18.4035378,12 C16.8563489,12 16,13 16,14 C16,15 16.5,16 18.5084196,16.5 C19.7864643,16.8181718 21,17.5 21,19 C21,20.5 19.6845401,21 18.5,21 C16.9861609,21 15.9861609,20.3333333 15.5,19"></path>
    </g>
  </symbol>
  <symbol version="1.1" xmlns="http://www.w3.org/2000/svg" xmlns:xlink="http://www.w3.org/1999/xlink" viewBox="0 -198 512 512" id="4">
    <defs></defs>
    <g stroke="none" stroke-width="1" fill="none" fill-rule="evenodd">
      <g>
        <path d="M489.718192,8.64613026 L511.13882,8.76383142 C511.13882,8.76383142 471.313656,62.7278468 468.06216,67.1259464 C467.005794,68.5501302 465.401134,70.0861302 464.588016,71.9899464 C462.531188,76.7764598 460.419432,87.2754022 460.419432,87.2754022 L440.82023,87.3725058 C440.82023,87.3725058 443.86967,76.4292414 443.744122,70.600092 C443.633288,65.5075556 441.034054,60.421885 439.57554,55.314636 C438.102314,50.1455938 436.101394,40.02918 436.101394,40.02918 L456.25085,40.02918 L459.029578,51.1460536 L489.718192,8.64613026" fill="#1A1918"></path>
        <path d="M449.157394,20.0268506 C453.110192,22.4102988 455.535816,35.5555556 455.535816,35.5555556 C455.535816,35.5555556 434.8518,35.8605978 423.595648,35.8605978 L413.868628,35.8605978 L402.057318,87.2754022 L383.993134,87.2754022 C383.993134,87.2754022 395.234574,31.400705 397.888736,21.2705594 C398.749916,17.9916015 403.78066,18.5536245 412.277702,18.5536245 L425.846682,18.5536245 C434.608552,18.5536245 444.849532,17.4354636 449.157394,20.0268506" fill="#1A1918"></path>
        <path d="M365.059924,45.0667892 C365.059924,45.0667892 365.622928,41.7662528 363.149242,37.9448888 C361.037486,34.6865288 359.08561,33.929318 353.527172,33.7557088 C337.831724,33.2623448 338.136766,44.89318 338.136766,44.89318 L365.059924,45.0667892 L365.059924,45.0667892 Z M382.082452,31.7479234 C384.382528,40.0438928 379.99816,59.5391264 379.99816,59.5391264 C379.99816,59.5391264 357.104306,59.1565978 344.56423,59.5391264 C340.66538,59.6578084 335.997548,59.1154022 334.83721,60.9289808 C333.204108,63.4713256 335.433564,67.383908 337.323648,69.0366284 C339.499158,70.9404444 343.736398,71.1562298 345.258666,71.3504368 C355.436874,72.6431878 376.7398,71.6839234 376.7398,71.6839234 L373.04987,88.0247662 C373.04987,88.0247662 342.94584,89.5333026 327.88892,85.940475 C324.915984,85.2323066 322.12941,83.8012568 320.246192,81.7718928 C319.73223,81.2167356 319.286928,80.459525 318.80043,79.8062836 C318.412016,79.284475 317.280122,77.5689808 316.772046,76.213456 C313.33321,67.0494406 317.175172,49.4923524 320.940628,40.0850882 C321.378084,38.9943908 321.927356,37.6123832 322.505072,36.4373334 C323.226974,34.971954 323.838038,33.3182528 324.414774,32.4423602 C324.803188,31.838161 325.2838,31.4487662 325.686928,30.8788966 C326.151846,30.2050574 326.693272,29.551816 327.194482,28.9691954 C328.583356,27.3566896 330.160552,26.2169502 332.057502,24.800613 C338.330974,20.1033564 349.68423,16.4556015 363.32285,17.8523218 C368.457564,18.3800153 376.212108,20.2141916 379.99816,25.4950498 C381.012352,26.905502 381.512582,29.7048276 382.082452,31.7479234 L382.082452,31.7479234 L382.082452,31.7479234 Z" fill="#1A1918"></path>
        <path d="M299.22869,18.4908506 L316.744582,18.3868812 C316.744582,18.3868812 306.983234,64.6944368 302.008398,87.2754022 L281.858942,87.2754022 C267.776,87.2754022 255.234942,89.019341 249.899158,78.9372568 C244.72325,69.1484444 249.662774,53.0498698 251.983448,42.1134712 C253.623418,34.3736398 257.076966,18.5536245 257.076966,18.5536245 L275.224522,18.3868812 C275.224522,18.3868812 270.096674,43.0168276 267.96334,55.314636 C267.199264,59.7196016 265.62305,63.8675862 267.268904,67.1259464 C268.832368,70.22541 271.020628,70.4470804 277.69036,70.600092 C279.803096,70.649134 286.722942,70.600092 286.722942,70.600092 L299.22869,18.4908506" fill="#1A1918"></path>
        <path d="M217.243954,51.8404904 C219.07813,45.3237702 221.752888,38.2577778 221.412536,32.3864522 C221.04472,26.106115 215.778574,20.3878008 212.380934,19.1862682 C202.14682,15.5728429 192.565946,20.624184 188.758314,24.7437242 C183.83154,30.0804904 182.164107,36.3127662 180.420169,44.89318 C179.121533,51.2637548 178.058299,57.9893946 180.420169,62.957364 C184.602483,71.7398314 197.64377,69.8222836 211.685518,69.9056552 C213.769808,64.3197548 215.49315,58.0453026 217.243954,51.8404904 L217.243954,51.8404904 L217.243954,51.8404904 Z M241.561992,26.1335786 C243.562912,40.6824214 235.885854,56.7398008 230.59813,70.7040614 C235.989824,71.1905594 240.714544,70.6285364 241.054896,71.030682 C241.40898,71.5524904 237.441472,87.6991264 236.058482,87.7403218 C231.779066,87.852138 217.59902,87.969839 211.685518,87.969839 C192.391356,87.969839 174.340904,89.2272796 165.135693,79.6326744 C161.397701,75.7348046 158.81318,69.0503602 158.187402,64.3472184 C157.144766,56.4955708 158.451249,47.8523832 160.271693,40.7245978 C161.918529,34.2902682 164.030284,28.2178698 167.219985,22.659433 C175.327632,8.50685058 189.432153,-1.99797701 213.075372,0.426666666 C217.660812,0.89943295 224.247172,2.9072184 228.360828,5.28968582 C228.645272,5.45740996 229.639846,6.2489502 229.868384,6.38822988 C235.42682,9.92514942 240.491892,18.3662835 241.561992,26.1335786 L241.561992,26.1335786 L241.561992,26.1335786 Z" fill="#1A1918"></path>
        <path d="M156.193349,18.5742222 C155.026146,23.88941 153.858943,29.9137472 152.628966,35.166161 L133.174927,35.166161 C134.682483,29.3438774 135.835954,23.5559234 137.34351,18.4908506 C143.56892,18.4908506 149.356874,18.5742222 156.193349,18.5742222" fill="#1A1918"></path>
        <path d="M132.48049,40.02918 L151.239111,40.02918 C148.787004,53.6060076 143.930851,75.5052874 140.123218,90.748567 C137.73977,100.288245 136.148843,107.250268 129.700782,112.286897 C129.124046,112.739065 128.79154,112.524261 128.311908,112.982314 C127.123126,114.115188 121.627464,115.428536 118.584889,115.761042 C113.637517,116.296582 108.044751,115.830682 101.965487,115.706115 C103.556414,109.890697 105.356261,102.908077 106.773579,97.6968582 C121.593134,99.489839 121.968797,85.4824214 124.837762,71.9899464 C126.49833,64.1942068 131.529073,43.1561072 132.48049,40.02918" fill="#1A1918"></path>
        <g transform="translate(0.000000, 8.827586)" fill="#21609B">
          <path d="M88.7084138,66.6365058 L88.3062682,67.678161 C81.4550804,81.0176246 69.3171494,89.2027586 52.0033104,89.5637088 C43.9093946,89.7304522 36.1970268,87.6540076 31.1594176,85.3951264 C20.286774,80.5105288 11.1423755,71.4514636 6.14792338,61.7725058 C-1.01615326,47.897502 -2.30792338,28.596475 12.5881379,14.180046 C12.8176552,14.180046 10.7814253,17.3059923 11.0109425,17.3059923 L10.6009502,18.6399387 C-0.133394636,52.2465594 32.9376858,81.046069 65.0857932,77.7523984 C72.8118928,76.9608582 82.6644598,72.729502 88.7084138,66.6365058"></path>
          <path d="M69.2543754,52.7399234 C77.3424062,52.7958314 85.7904062,49.0156628 90.792705,43.7083218 C86.416184,54.8183296 73.7436934,61.9598468 56.7486284,59.6882146 C42.5195402,57.7843984 28.9642912,43.4650728 27.5675708,29.1173026 C26.5465134,18.675249 30.1864214,12.4429732 36.183295,4.88361686 C34.0990038,8.83739464 33.3202146,11.8868352 33.1260076,13.8318467 C30.8475096,36.4196782 51.1695938,52.6222222 69.2543754,52.7399234"></path>
          <path d="M89.980567,24.6848736 C88.7231264,27.5685518 81.483525,33.0151724 78.2869578,33.6958774 C65.6281992,36.3922146 57.5205518,30.389456 53.2744828,23.558866 C52.64282,22.5378084 51.4756168,19.7522146 51.2666974,19.0430651 C49.619862,13.443433 50.3770728,4.9738544 55.290115,0.58948659 C53.810023,4.75806896 53.5942376,9.60049042 54.3730268,12.7480153 C54.8448122,14.6518314 56.282728,17.9739464 57.7216246,20.0641226 C60.340475,23.8717548 62.0010422,24.7966896 65.3643524,26.8182068 C66.878774,27.7284292 68.5040306,28.4581762 69.2063142,28.659249 C72.3950344,29.5969348 79.1275402,32.0706206 89.980567,24.6848736"></path>
        </g>
      </g>
    </g>
  </symbol>
  <symbol version="1.1" xmlns="http://www.w3.org/2000/svg" xmlns:xlink="http://www.w3.org/1999/xlink" preserveAspectRatio="xMidYMid" viewBox="0 -14 256 256" id="5">
    <g>
      <path d="M210.483381,73.8236374 C207.827698,72.9095503 205.075867,72.0446761 202.24247,71.2267368 C202.708172,69.3261098 203.135596,67.4500894 203.515631,65.6059664 C209.753843,35.3248922 205.675082,10.9302478 191.747328,2.89849283 C178.392359,-4.80289661 156.551327,3.22703567 134.492936,22.4237776 C132.371761,24.2697233 130.244662,26.2241201 128.118477,28.2723861 C126.701777,26.917204 125.287358,25.6075897 123.876584,24.3549348 C100.758745,3.82852863 77.5866802,-4.82157937 63.6725966,3.23341515 C50.3303869,10.9571328 46.3792156,33.8904224 51.9945178,62.5880206 C52.5367729,65.3599011 53.1706189,68.1905639 53.8873982,71.068617 C50.6078941,71.9995641 47.4418534,72.9920277 44.4125156,74.0478303 C17.3093297,83.497195 0,98.3066828 0,113.667995 C0,129.533287 18.5815786,145.446423 46.8116526,155.095373 C49.0394553,155.856809 51.3511025,156.576778 53.7333796,157.260293 C52.9600965,160.37302 52.2875179,163.423318 51.7229345,166.398431 C46.3687351,194.597975 50.5500231,216.989464 63.8566899,224.664425 C77.6012619,232.590464 100.66852,224.443422 123.130185,204.809231 C124.905501,203.257196 126.687196,201.611293 128.472081,199.886102 C130.785552,202.113904 133.095375,204.222319 135.392897,206.199955 C157.14963,224.922338 178.637969,232.482469 191.932332,224.786092 C205.663234,216.837268 210.125675,192.78347 204.332202,163.5181 C203.88974,161.283006 203.374826,158.99961 202.796573,156.675661 C204.416503,156.196743 206.006814,155.702335 207.557482,155.188332 C236.905331,145.46465 256,129.745175 256,113.667995 C256,98.2510906 238.132466,83.3418093 210.483381,73.8236374 L210.483381,73.8236374 Z M204.118035,144.807565 C202.718197,145.270987 201.281904,145.718918 199.818271,146.153177 C196.578411,135.896354 192.205739,124.989735 186.854729,113.72131 C191.961041,102.721277 196.164656,91.9540963 199.313837,81.7638014 C201.93261,82.5215915 204.474374,83.3208483 206.923636,84.1643056 C230.613348,92.3195488 245.063763,104.377206 245.063763,113.667995 C245.063763,123.564379 229.457753,136.411268 204.118035,144.807565 L204.118035,144.807565 Z M193.603754,165.642007 C196.165567,178.582766 196.531475,190.282717 194.834536,199.429057 C193.309843,207.64764 190.243595,213.12715 186.452366,215.321689 C178.384612,219.991462 161.131788,213.921395 142.525146,197.909832 C140.392124,196.074366 138.243609,194.114502 136.088259,192.040261 C143.301619,184.151133 150.510878,174.979732 157.54698,164.793993 C169.922699,163.695814 181.614905,161.900447 192.218042,159.449363 C192.740247,161.555956 193.204126,163.621993 193.603754,165.642007 L193.603754,165.642007 Z M87.2761866,214.514686 C79.3938934,217.298414 73.1160375,217.378157 69.3211631,215.189998 C61.2461189,210.532528 57.8891498,192.554265 62.4682434,168.438039 C62.9927272,165.676183 63.6170041,162.839142 64.3365173,159.939216 C74.8234575,162.258154 86.4299951,163.926841 98.8353334,164.932519 C105.918826,174.899534 113.336329,184.06091 120.811247,192.08264 C119.178102,193.65928 117.551336,195.16028 115.933685,196.574699 C106.001303,205.256705 96.0479605,211.41654 87.2761866,214.514686 L87.2761866,214.514686 Z M50.3486141,144.746959 C37.8658105,140.48046 27.5570398,134.935332 20.4908634,128.884403 C14.1414664,123.446815 10.9357817,118.048415 10.9357817,113.667995 C10.9357817,104.34622 24.8334611,92.4562517 48.0123604,84.3748281 C50.8247961,83.3942121 53.7689223,82.4701001 56.8242337,81.6020363 C60.0276398,92.0224477 64.229889,102.917218 69.3011135,113.93411 C64.1642716,125.11459 59.9023288,136.182975 56.6674809,146.725506 C54.489347,146.099407 52.3791089,145.440499 50.3486141,144.746959 L50.3486141,144.746959 Z M62.7270678,60.4878073 C57.9160346,35.9004118 61.1112387,17.3525532 69.1516515,12.6982729 C77.7160924,7.74005624 96.6544653,14.8094222 116.614922,32.5329619 C117.890816,33.6657739 119.171723,34.8514442 120.456275,36.0781256 C113.018267,44.0647686 105.66866,53.1573386 98.6480514,63.0655695 C86.6081646,64.1815215 75.0831931,65.9741531 64.4868907,68.3746571 C63.8206914,65.6948233 63.2305903,63.0619242 62.7270678,60.4878073 L62.7270678,60.4878073 Z M173.153901,87.7550367 C170.620796,83.3796304 168.020249,79.1076627 165.369124,74.9523483 C173.537126,75.9849113 181.362914,77.3555864 188.712066,79.0329319 C186.505679,86.1041206 183.755673,93.4974728 180.518546,101.076741 C178.196419,96.6680702 175.740322,92.2229454 173.153901,87.7550367 L173.153901,87.7550367 Z M128.122121,43.8938899 C133.166461,49.3588189 138.218091,55.4603279 143.186789,62.0803968 C138.179814,61.8439007 133.110868,61.720868 128.000001,61.720868 C122.937434,61.720868 117.905854,61.8411667 112.929865,62.0735617 C117.903575,55.515009 122.99895,49.4217021 128.122121,43.8938899 L128.122121,43.8938899 Z M82.8018984,87.830679 C80.2715265,92.2183886 77.8609975,96.6393627 75.5753239,101.068539 C72.3906004,93.5156998 69.6661103,86.0886276 67.440586,78.9171899 C74.7446255,77.2826781 82.5335049,75.9461789 90.6495601,74.9332099 C87.9610684,79.1268011 85.3391054,83.4302106 82.8018984,87.8297677 L82.8018984,87.830679 L82.8018984,87.830679 Z M90.8833221,153.182899 C82.4979621,152.247395 74.5919739,150.979704 67.289757,149.390303 C69.5508242,142.09082 72.3354636,134.505173 75.5876271,126.789657 C77.8792246,131.215644 80.2993228,135.638441 82.8451877,140.03572 L82.8456433,140.03572 C85.4388987,144.515476 88.1255676,148.90364 90.8833221,153.182899 L90.8833221,153.182899 Z M128.424691,184.213105 C123.24137,178.620587 118.071264,172.434323 113.021912,165.780078 C117.923624,165.972373 122.921029,166.0708 128.000001,166.0708 C133.217953,166.0708 138.376211,165.953235 143.45336,165.727219 C138.468257,172.501308 133.434855,178.697141 128.424691,184.213105 L128.424691,184.213105 Z M180.622896,126.396409 C184.044571,134.195313 186.929004,141.741317 189.219234,148.9164 C181.796719,150.609693 173.782736,151.973534 165.339049,152.986959 C167.996555,148.775595 170.619884,144.430263 173.197646,139.960532 C175.805484,135.438399 178.28163,130.90943 180.622896,126.396409 L180.622896,126.396409 Z M163.724586,134.496971 C159.722835,141.435557 155.614455,148.059271 151.443648,154.311611 C143.847063,154.854776 135.998946,155.134562 128.000001,155.134562 C120.033408,155.134562 112.284171,154.887129 104.822013,154.402745 C100.48306,148.068386 96.285368,141.425078 92.3091341,134.556664 L92.3100455,134.556664 C88.3442923,127.706935 84.6943232,120.799333 81.3870228,113.930466 C84.6934118,107.045648 88.3338117,100.130301 92.276781,93.292874 L92.2758697,93.294241 C96.2293193,86.4385872 100.390102,79.8276317 104.688954,73.5329157 C112.302398,72.9573964 120.109505,72.6571055 127.999545,72.6571055 L128.000001,72.6571055 C135.925583,72.6571055 143.742714,72.9596746 151.353879,73.5402067 C155.587114,79.7888993 159.719645,86.3784378 163.688588,93.2350031 C167.702644,100.168578 171.389978,107.037901 174.724618,113.77508 C171.400003,120.627999 167.720871,127.566587 163.724586,134.496971 L163.724586,134.496971 Z M186.284677,12.3729198 C194.857321,17.3165548 198.191049,37.2542268 192.804953,63.3986692 C192.461372,65.0669011 192.074504,66.7661189 191.654369,68.4881206 C181.03346,66.0374921 169.500286,64.2138746 157.425315,63.0810626 C150.391035,53.0639249 143.101577,43.9572289 135.784778,36.073113 C137.751934,34.1806885 139.716356,32.3762092 141.672575,30.673346 C160.572216,14.2257007 178.236518,7.73185406 186.284677,12.3729198 L186.284677,12.3729198 Z M128.000001,90.8080696 C140.624975,90.8080696 150.859926,101.042565 150.859926,113.667995 C150.859926,126.292969 140.624975,136.527922 128.000001,136.527922 C115.375026,136.527922 105.140075,126.292969 105.140075,113.667995 C105.140075,101.042565 115.375026,90.8080696 128.000001,90.8080696 L128.000001,90.8080696 Z" fill="#00D8FF"></path>
    </g>
  </symbol>
  <symbol enable-background="new 0 0 2249 2249" xmlns="http://www.w3.org/2000/svg" viewBox="0 0 2249 2249" id="6">
    <path d="m2249 1124.5c0 621-503.5 1124.5-1124.5 1124.5-573 0-1045.9-428.5-1115.6-982.6-5.9-47.1-8.9-94.5-8.9-141.9 0-88 10.1-173.7 29.2-255.9 115.9-497.7 562.3-868.6 1095.3-868.6 531.7 0 977.2 369 1094.3 864.9 15.6 65.8 25.1 132.9 28.6 200.5 1.1 19.7 1.6 39.4 1.6 59.1z" fill="#f2f2f2"></path>
    <path d="m1068.3 1214.8v-292.4l-253.2-146.1-253.2 146.1v292.4l253.2 146.2z" fill="#3b8739"></path>
    <path d="m2065.4 1170.4 165 95.3-165 95.3-253.2-146.2v-292.3l253.2-146.2 153.4 88.6c15.6 65.8 25.1 132.9 28.6 200.5l-93.8 54.2v-101.8l-88.2-50.9-88.2 50.9v101.8z" fill="#333"></path>
    <path d="m2114.6 1097v-56.8l-49.1-28.4-49.2 28.4v56.8l49.2 28.4z" fill="#66a060"></path>
    <path d="m442.3 922.5v385.5l-168.9-96.3v-197.7l-84.3-48.7-84.3 48.7v197.6l-95.9 54.7c-5.9-47-8.9-94.4-8.9-141.8 0-88 10.1-173.7 29.2-255.9l159.9-92.3z" fill="#333"></path>
    <path d="m815 776.2 253.2 438.5-253.2 146.2-253.1-438.5z" fill="#6da75d"></path>
    <path d="m561.9 1214.8 86.9-141.8-86.9-150.6z" fill="#55a344"></path>
    <path d="m983.8 1068.6 84.4-146.2-253.1-146.1z" fill="#639d57"></path>
    <path d="m1522.3 437.4v387.9l-84.9-49-253.2 146.2v292.4l253.2 146.2 253.2-146.2v-687.4zm-.5 679.9-84.4 48.7-84.4-48.7v-97.4l84.4-48.7 84.4 48.7z" fill="#333"></path>
    <g fill="#66a060">
      <path d="m1239.4 1575.7s-5-42.7-50.7-42.7-77 6-77 31.3 88.9 25.3 122.7 35.3c33.8 9.9 63.6 35.8 48.7 81.5s-60.6 50.7-131.2 50.7-86.5-58.6-86.5-81.5h39.8s-5 35.8 41.7 41.7 91.4 9.3 97.4-26.8c8-47.7-151.1-23.9-165-70.6-11.8-39.5-5-91.4 74.5-99.4s123.2 27.2 123.2 79.5z"></path>
      <path d="m855.3 1762 87.9 50.7c44.2 25.5 99.4-6.4 99.4-57.4v-252.6h-35.8v242.6c0 27.8-30.1 45.3-54.3 31.3l-61.3-35.4v-258.9l224.2-129.4 224.2 129.4v258.9l-224.2 129.4-64.6-37.3-42.2 17 106.8 61.6 260-150.1v-300.2l-260-150.1-260 150.1z"></path>
    </g>
  </symbol>
  <symbol xmlns="http://www.w3.org/2000/svg" fill-rule="evenodd" clip-rule="evenodd" viewBox="0 0 48 48" id="7">
    <path fill="#00549d" fill-rule="evenodd" d="M22.903,3.286c0.679-0.381,1.515-0.381,2.193,0 c3.355,1.883,13.451,7.551,16.807,9.434C42.582,13.1,43,13.804,43,14.566c0,3.766,0,15.101,0,18.867 c0,0.762-0.418,1.466-1.097,1.847c-3.355,1.883-13.451,7.551-16.807,9.434c-0.679,0.381-1.515,0.381-2.193,0 c-3.355-1.883-13.451-7.551-16.807-9.434C5.418,34.899,5,34.196,5,33.434c0-3.766,0-15.101,0-18.867 c0-0.762,0.418-1.466,1.097-1.847C9.451,10.837,19.549,5.169,22.903,3.286z" clip-rule="evenodd"></path>
    <path fill="#0086d4" fill-rule="evenodd" d="M5.304,34.404C5.038,34.048,5,33.71,5,33.255 c0-3.744,0-15.014,0-18.759c0-0.758,0.417-1.458,1.094-1.836c3.343-1.872,13.405-7.507,16.748-9.38 c0.677-0.379,1.594-0.371,2.271,0.008c3.343,1.872,13.371,7.459,16.714,9.331c0.27,0.152,0.476,0.335,0.66,0.576L5.304,34.404z" clip-rule="evenodd"></path>
    <path fill="#fff" fill-rule="evenodd" d="M24,10c7.727,0,14,6.273,14,14s-6.273,14-14,14 s-14-6.273-14-14S16.273,10,24,10z M24,17c3.863,0,7,3.136,7,7c0,3.863-3.137,7-7,7s-7-3.137-7-7C17,20.136,20.136,17,24,17z" clip-rule="evenodd"></path>
    <path fill="#0075c0" fill-rule="evenodd" d="M42.485,13.205c0.516,0.483,0.506,1.211,0.506,1.784 c0,3.795-0.032,14.589,0.009,18.384c0.004,0.396-0.127,0.813-0.323,1.127L23.593,24L42.485,13.205z" clip-rule="evenodd"></path>
    <path fill="#fff" fill-rule="evenodd" d="M31 21H33V27H31zM38 21H40V27H38z" clip-rule="evenodd"></path>
    <path fill="#fff" fill-rule="evenodd" d="M29 23H35V25H29zM36 23H42V25H36z" clip-rule="evenodd"></path>
  </symbol>
  <symbol xmlns="http://www.w3.org/2000/svg" viewBox="0 0 48 48" id="8">
    <path fill="#0277BD" d="M24.047,5c-1.555,0.005-2.633,0.142-3.936,0.367c-3.848,0.67-4.549,2.077-4.549,4.67V14h9v2H15.22h-4.35c-2.636,0-4.943,1.242-5.674,4.219c-0.826,3.417-0.863,5.557,0,9.125C5.851,32.005,7.294,34,9.931,34h3.632v-5.104c0-2.966,2.686-5.896,5.764-5.896h7.236c2.523,0,5-1.862,5-4.377v-8.586c0-2.439-1.759-4.263-4.218-4.672C27.406,5.359,25.589,4.994,24.047,5z M19.063,9c0.821,0,1.5,0.677,1.5,1.502c0,0.833-0.679,1.498-1.5,1.498c-0.837,0-1.5-0.664-1.5-1.498C17.563,9.68,18.226,9,19.063,9z"></path>
    <path fill="#FFC107" d="M23.078,43c1.555-0.005,2.633-0.142,3.936-0.367c3.848-0.67,4.549-2.077,4.549-4.67V34h-9v-2h9.343h4.35c2.636,0,4.943-1.242,5.674-4.219c0.826-3.417,0.863-5.557,0-9.125C41.274,15.995,39.831,14,37.194,14h-3.632v5.104c0,2.966-2.686,5.896-5.764,5.896h-7.236c-2.523,0-5,1.862-5,4.377v8.586c0,2.439,1.759,4.263,4.218,4.672C19.719,42.641,21.536,43.006,23.078,43z M28.063,39c-0.821,0-1.5-0.677-1.5-1.502c0-0.833,0.679-1.498,1.5-1.498c0.837,0,1.5,0.664,1.5,1.498C29.563,38.32,28.899,39,28.063,39z"></path>
  </symbol>
  <symbol id="9" xmlns="http://www.w3.org/2000/svg" viewBox="0 0 1112.61 300">
    <defs></defs>
    <title>MongoDB_Logo_FullColorBlack_RGB</title>
    <path d="M134.44,120.34C119.13,52.8,87.22,34.82,79.08,22.11a144.57,144.57,0,0,1-8.9-17.42c-.43,6-1.22,9.78-6.32,14.33C53.62,28.15,10.13,63.59,6.47,140.33c-3.41,71.55,52.6,115.67,60,120.23,5.69,2.8,12.62.06,16-2.51,27-18.53,63.89-67.93,52-137.71"></path>
    <path d="M72.5,222.46c-1.41,17.71-2.42,28-6,38.12,0,0,2.35,16.86,4,34.72h5.84a324.73,324.73,0,0,1,6.37-37.39C75.15,254.19,72.79,238,72.5,222.46Z"></path>
    <path d="M82.7,257.92h0c-7.64-3.53-9.85-20.06-10.19-35.46a725.83,725.83,0,0,0,1.65-76.35c-.4-13.36.19-123.74-3.29-139.9A134.29,134.29,0,0,0,79.08,22.1c8.14,12.72,40.06,30.7,55.36,98.24C146.36,190,109.67,239.27,82.7,257.92Z"></path>
    <path d="M1089.7,233.5a16.59,16.59,0,1,1,16.59-16.82,16.38,16.38,0,0,1-16.59,16.82m0-31.68a15.1,15.1,0,1,0,15,15.14,14.85,14.85,0,0,0-15-15.14m4,25.58-4.28-9.23h-3.45v9.23h-2.51v-21h6.19c4.61,0,6.53,2,6.53,5.87,0,3.08-1.45,5-4.15,5.59l4.42,9.51ZM1086.07,216h3.63c2.94,0,4.06-1,4.06-3.68s-1.07-3.59-4.38-3.59h-3.31Z"></path>
    <path d="M842.79,218.38c4.49,3.59,13.46,5.07,21.37,5.07,10.25,0,20.3-1.9,30.12-10.77,10-9.09,16.88-23,16.88-45.21,0-21.34-8.12-38.66-24.78-48.8-9.4-5.91-21.58-8.24-35.47-8.24-4,0-8.12.21-10.46,1.27a5.49,5.49,0,0,0-1.93,3c-.42,3.8-.42,32.74-.42,49.85,0,17.54,0,42,.42,45,.22,2.54,1.5,7,4.27,8.87M800.15,100.93c3.63,0,17.43.63,23.85.63,12,0,20.29-.63,42.72-.63,18.8,0,34.62,5.07,45.93,14.78,13.68,11.84,21,28.31,21,48.38,0,28.52-13,45-26.07,54.29-13,9.72-29.91,15.21-54,15.21-12.82,0-34.83-.42-53.2-.63H800c-.86-1.69,1.57-8.28,3.07-8.45,5-.56,6.32-.76,8.62-1.71,3.88-1.59,4.79-3.57,5.22-10.54.64-13.1.43-28.73.43-46.48,0-12.67.21-37.39-.21-45.21-.65-6.54-3.41-8.23-9-9.5a116.24,116.24,0,0,0-12-1.9c-.42-1.27,2.86-7,3.93-8.24"></path>
    <path d="M986.6,111.65c-.85.21-1.92,2.33-1.92,3.38-.22,7.61-.43,27.46-.43,41.19a1.36,1.36,0,0,0,1.07,1.06c2.77.21,9.61.43,15.38.43,8.12,0,12.82-1.06,15.38-2.33,6.84-3.38,10-10.78,10-18.8,0-18.38-12.82-25.35-31.83-25.35a57.35,57.35,0,0,0-7.69.42m48.5,84.5c0-18.59-13.68-29.15-38.68-29.15-1.06,0-9-.21-10.89.21-.64.21-1.28.63-1.28,1.06,0,13.31-.22,34.64.43,43.09.43,3.59,3,8.66,6.19,10.14,3.42,1.9,11.11,2.32,16.45,2.32,14.74,0,27.78-8.23,27.78-27.67M948,101.3c1.93,0,7.61.63,22.14.63,13.67,0,24.78-.42,38-.42,16.45,0,39.09,5.92,39.09,30.42,0,12-8.54,21.76-19.65,26.41-.64.21-.64.63,0,.84,15.81,4,29.69,13.73,29.69,32.32,0,18.17-11.32,29.58-27.77,36.76-10,4.44-22.43,5.91-35,5.91-9.61,0-35.37-1-49.69-.84-1.5-.63,1.37-7.4,2.65-8.45a39.38,39.38,0,0,0,9.69-1.52c5.12-1.26,5.73-2.91,6.37-10.52.43-6.55.43-30,.43-46.69,0-22.82.22-38.23,0-45.84-.21-5.91-2.35-7.82-6.41-8.87-3.2-.64-8.54-1.27-12.81-1.9-1.07-1.06,2.22-7.4,3.28-8.24"></path>
    <path d="M181.75,233.5a9.26,9.26,0,0,1-.65-4.27,5.43,5.43,0,0,1,.65-2.85,72.58,72.58,0,0,0,8.2-1.67c3.78-.94,5.2-3,5.42-7.82.62-11.39.66-32.76.44-47.78v-.44c0-1.62,0-3.82-2-5.37a42.94,42.94,0,0,0-11.33-5c-1.79-.53-2.78-1.47-2.73-2.57s1.18-2.4,3.51-2.86c6.19-.63,22.41-4.5,28.78-7.44a4.22,4.22,0,0,1,.85,3c0,.66-.1,1.36-.17,2.08-.18,2.12-.38,4.53-.38,6.93a1.58,1.58,0,0,0,2.68.91c12.13-9.51,23-12.9,28.57-12.9,9.17,0,16.31,4.38,21.84,13.4a1.47,1.47,0,0,0,1.24.73,1.42,1.42,0,0,0,1.16-.62c11.15-8.46,22.2-13.51,29.6-13.51,17.48,0,27.93,13.09,27.93,35,0,6.3-.06,14.29-.12,21.74-.05,6.54-.1,12.67-.1,16.91,0,1,1.38,3.88,3.45,4.45,2.56,1.25,6.25,1.89,10.92,2.69l.18,0c.35,1.26-.39,6.15-1.1,7.15-1.16,0-2.76-.1-4.76-.2-3.63-.18-8.61-.43-14.4-.43-11.62,0-17.69.22-23.49.6-.44-1.45-.59-6.13-.06-7.11A61.55,61.55,0,0,0,303,224.7c3.7-1.22,4.77-2.9,5-7.81.09-3.49.76-34.24-.43-41.54-1.1-7.57-6.8-16.43-19.27-16.43-4.63,0-12.1,1.93-19.22,7.33a2.8,2.8,0,0,0-.7,1.81v.15c.84,3.94.84,8.54.84,15.49,0,4,0,8.17-.05,12.34-.05,8.48-.09,16.48.05,22.53,0,4.12,2.49,5.11,4.5,5.9,1.09.24,1.95.45,2.82.65,1.67.41,3.41.83,6,1.24a11.49,11.49,0,0,1-.1,5.32,4.26,4.26,0,0,1-.75,1.81c-6.46-.22-13.09-.41-22.66-.41-2.9,0-7.63.12-11.81.23-3.39.09-6.59.18-8.41.19a8.24,8.24,0,0,1-.64-3.68,6.38,6.38,0,0,1,.67-3.44l2.57-.47c2.24-.4,4.18-.74,6-1.2,3.16-1,4.35-2.72,4.58-6.75.62-9.4,1.1-36.49-.23-43.27-2.26-10.88-8.45-16.4-18.41-16.4-5.83,0-13.2,2.81-19.22,7.32a5.86,5.86,0,0,0-1.77,4.35c0,3.23,0,7.07,0,11.19,0,13.6-.09,30.53.24,37.85.2,2.26,1,4.94,5.23,5.92.93.27,2.53.53,4.39.84,1.07.18,2.24.37,3.45.59a15.16,15.16,0,0,1-.57,7.15c-1.86,0-4.15-.12-6.77-.23-4-.18-9-.4-14.65-.4-6.68,0-11.33.22-15.06.4-2.51.12-4.68.22-6.85.23"></path>
    <path d="M396.2,154.49A18.22,18.22,0,0,0,386,157.36c-7.42,4.51-11.2,13.52-11.2,26.76,0,24.78,12.41,42.09,30.18,42.09A19,19,0,0,0,418,221.6c5.46-4.45,8.36-13.55,8.36-26.29,0-24.41-12.13-40.82-30.18-40.82m3.42,80.91c-32.1,0-43.53-23.55-43.53-45.58,0-15.39,6.29-27.42,18.7-35.77a57.11,57.11,0,0,1,28.89-8.54c24.49,0,41.6,17.61,41.6,42.84,0,17.14-6.83,30.68-19.76,39.14-6.21,3.8-17,7.91-25.9,7.91"></path>
    <path d="M723,154.49a18.17,18.17,0,0,0-10.22,2.87c-7.42,4.51-11.2,13.52-11.2,26.76,0,24.78,12.41,42.09,30.18,42.09a19,19,0,0,0,13.06-4.61c5.46-4.45,8.35-13.55,8.35-26.29,0-24.41-12.12-40.82-30.17-40.82m3.42,80.91c-32.1,0-43.53-23.55-43.53-45.57,0-15.41,6.29-27.43,18.71-35.78a57,57,0,0,1,28.88-8.54c24.49,0,41.6,17.62,41.6,42.83,0,17.16-6.83,30.69-19.76,39.14-6.21,3.81-17,7.92-25.9,7.92"></path>
    <path d="M614.92,153.65c-9.89,0-16.29,7.81-16.29,19.9s5.51,26.46,21,26.46c2.66,0,7.48-1.18,9.87-3.81,3.6-3.31,6-10.15,6-17.37,0-15.77-7.68-25.18-20.53-25.18m-1.28,83.44a16.29,16.29,0,0,0-8,2c-7.83,5-11.46,10-11.46,15.81,0,5.44,2.11,9.77,6.65,13.61,5.5,4.66,12.92,6.93,22.67,6.93,19.19,0,27.79-10.32,27.79-20.54,0-7.12-3.57-11.89-10.92-14.59-5.66-2.07-15.12-3.21-26.7-3.21m1.28,49c-11.52,0-19.82-2.43-26.91-7.89-6.9-5.32-10-13.22-10-18.68a14.61,14.61,0,0,1,3.78-9.5c2-2.28,6.65-6.55,17.4-13.94a.92.92,0,0,0,.56-.85.89.89,0,0,0-.68-.88c-8.85-3.39-11.52-9-12.33-12,0-.11,0-.28-.09-.47-.25-1.18-.49-2.3,1.12-3.45,1.24-.88,3.22-2.06,5.34-3.31a71.89,71.89,0,0,0,8.59-5.59,1.41,1.41,0,0,0-.36-2.2c-13.1-4.4-19.7-14.13-19.7-29a28.83,28.83,0,0,1,12.1-23.73c5.27-4.17,18.5-9.18,27.07-9.18h.5c8.81.21,13.78,2.06,20.66,4.6a32.84,32.84,0,0,0,12.22,1.94c7.29,0,10.48-2.31,13.22-5a11.47,11.47,0,0,1,.7,3.78,14.22,14.22,0,0,1-2.38,8.68c-1.49,2.07-5,3.57-8.21,3.57-.33,0-.65,0-1-.05a26.94,26.94,0,0,1-5-.83l-.82.29c-.26.38-.09.8.12,1.34a1.7,1.7,0,0,1,.12.33,58.52,58.52,0,0,1,1.19,8.1c0,15.55-6.13,22.32-12.76,27.34a43.56,43.56,0,0,1-22,8.52h0c-.17,0-1,.07-2.56.21-1,.09-2.3.21-2.49.21l-.19,0c-1.44.4-5.2,2.19-5.2,5.52,0,2.76,1.7,6.19,9.83,6.81l5.26.37c10.72.75,24.11,1.68,30.41,3.81a21.06,21.06,0,0,1,14.07,20.27c0,13.95-9.92,27.07-26.53,35.09a57.66,57.66,0,0,1-25.09,5.63"></path>
    <path d="M565.86,226.06c-4.7-.63-8.13-1.27-12.18-3.17a5.6,5.6,0,0,1-1.5-3c-.43-6.55-.43-25.56-.43-38,0-10.15-1.7-19-6-25.35-5.13-7.19-12.39-11.41-21.79-11.41-8.33,0-19.44,5.7-28.62,13.52-.22.21-1.63,1.55-1.6-.53s.35-6.3.55-9a4.63,4.63,0,0,0-1.4-3.92c-6,3-22.83,7-29.06,7.61-4.54.88-5.69,5.25-.84,6.76l.07,0a41.46,41.46,0,0,1,11,4.84c1.92,1.48,1.71,3.59,1.71,5.28.21,14.15.21,35.91-.43,47.74-.21,4.65-1.5,6.34-4.92,7.19l.32-.11a66.46,66.46,0,0,1-7.91,1.48c-1.07,1.05-1.07,7.18,0,8.45,2.14,0,13-.63,22-.63,12.38,0,18.79.63,22,.63,1.29-1.48,1.71-7.18.86-8.45a45,45,0,0,1-8.77-1.27c-3.41-.84-4.27-2.54-4.48-6.33-.42-9.94-.42-31.06-.42-45.43,0-4,1.06-5.91,2.34-7,4.27-3.8,11.33-6.33,17.52-6.33,6,0,10,1.9,13,4.43A18.1,18.1,0,0,1,533,176c.85,8,.63,24.09.63,38,0,7.61-.63,9.52-3.41,10.36-1.28.63-4.7,1.27-8.76,1.69-1.28,1.27-.86,7.18,0,8.45,5.55,0,12-.63,21.36-.63,11.75,0,19.23.63,22.22.63,1.28-1.48,1.71-7,.86-8.45"></path>
  </symbol>
  <symbol xmlns="http://www.w3.org/2000/svg" viewBox="0 0 24 24" id="10">
    <g fill="none" fill-rule="evenodd" transform="translate(4)">
      <circle cx="12" cy="12" r="4" fill="#19BCFE"></circle>
      <path fill="#09CF83" d="M4,24 C6.209139,24 8,22.209139 8,20 C8,19.3969461 8,18.0636128 8,16 C6.20303877,16 4.86970543,16 4,16 C1.790861,16 0,17.790861 0,20 C0,22.209139 1.790861,24 4,24 Z"></path>
      <path fill="#A259FF" d="M4,16 C4.73637967,16 6.069713,16 8,16 L8,8 C6.069713,8 4.73637967,8 4,8 C1.790861,8 0,9.790861 0,12 C0,14.209139 1.790861,16 4,16 Z"></path>
      <path fill="#F24E1E" d="M4,8 C4.73637967,8 6.069713,8 8,8 L8,0 C6.069713,0 4.73637967,0 4,0 C1.790861,0 0,1.790861 0,4 C0,6.209139 1.790861,8 4,8 Z"></path>
      <path fill="#FF7262" d="M12,8 L8,8 L8,8 L8,0 L12,0 L12,0 C14.209139,0 16,1.790861 16,4 C16,6.209139 14.209139,8 12,8 Z"></path>
    </g>
  </symbol>
</svg>